<?xml version="1.0" encoding="UTF-8"?>
<svg version="1.1" xmlns="http://www.w3.org/2000/svg" width="500" height="500">
<path d="M0 0 C8.12134543 6.99242081 12.5960022 18.38302601 15.75390625 28.37109375 C16.07359375 29.35464844 16.39328125 30.33820313 16.72265625 31.3515625 C23.55380468 56.81024069 18.30309503 84.46728374 5.73632812 107.21289062 C3.62057762 110.76122367 1.24798452 114.08165981 -1.24609375 117.37109375 C-2.16648437 118.60472656 -2.16648437 118.60472656 -3.10546875 119.86328125 C-11.68479278 130.95967968 -21.13508116 140.8050617 -32.24609375 149.37109375 C-33.1484375 150.12390625 -34.05078125 150.87671875 -34.98046875 151.65234375 C-56.37731736 169.08681298 -81.05074624 179.62453076 -107.24609375 187.37109375 C-107.9201123 187.57863281 -108.59413086 187.78617188 -109.28857422 188 C-128.21238153 193.78073046 -150.49580732 196.52346054 -170.24609375 195.37109375 C-170.24609375 191.37109375 -170.24609375 191.37109375 -168.33203125 189.36328125 C-167.43742188 188.66460937 -166.5428125 187.9659375 -165.62109375 187.24609375 C-164.61820313 186.45976562 -163.6153125 185.6734375 -162.58203125 184.86328125 C-159.18446956 182.29843545 -155.72141211 179.82903607 -152.24609375 177.37109375 C-139.31122805 168.21800214 -129.24141007 159.2636397 -121.55859375 145.24609375 C-121.20200684 144.60865234 -120.84541992 143.97121094 -120.47802734 143.31445312 C-111.60441724 126.39592882 -109.12267334 106.35279956 -105.32470703 87.87060547 C-104.55263905 84.12714477 -103.77075046 80.38582924 -102.98828125 76.64453125 C-102.75696503 75.50076019 -102.5256488 74.35698914 -102.287323 73.17855835 C-99.47973151 59.77205956 -99.47973151 59.77205956 -93.66015625 54.953125 C-92.95407227 54.36611816 -92.24798828 53.77911133 -91.52050781 53.17431641 C-87.60262168 50.06810054 -83.63589036 47.03841667 -79.62109375 44.05859375 C-78.7408252 43.40197754 -77.86055664 42.74536133 -76.95361328 42.06884766 C-70.95814508 37.60916441 -64.91589717 33.22218043 -58.81640625 28.90625 C-55.31842345 26.4300937 -51.84591892 23.91942383 -48.375 21.40551758 C-46.04049782 19.71573475 -43.70216752 18.03136351 -41.36328125 16.34765625 C-39.03994314 14.67380861 -36.73316597 12.98675511 -34.44140625 11.26953125 C-29.57493542 7.68112346 -24.47169664 4.72913346 -19.12109375 1.93359375 C-18.46351074 1.57869873 -17.80592773 1.22380371 -17.12841797 0.8581543 C-11.18107078 -2.13634022 -6.22876327 -3.12562489 0 0 Z " fill="#70CA71" transform="translate(410.24609375,189.62890625)"/>
<path d="M0 0 C1.546875 1.7734375 1.546875 1.7734375 2.13671875 4.18359375 C1.27590686 7.96318503 -1.13590817 9.43028112 -4.140625 11.5859375 C-4.75639404 12.04750244 -5.37216309 12.50906738 -6.0065918 12.98461914 C-7.38643018 14.01869834 -8.77092794 15.04657943 -10.15917969 16.06933594 C-12.61511519 17.89377504 -15.03971093 19.75476657 -17.4609375 21.625 C-26.91972582 28.92142767 -36.48442325 36.01667464 -46.28125 42.8515625 C-50.68504251 45.92465283 -55.04097694 49.0618392 -59.390625 52.2109375 C-60.13723389 52.75129639 -60.88384277 53.29165527 -61.65307617 53.84838867 C-63.16456939 54.94278341 -64.6758809 56.03742914 -66.18701172 57.13232422 C-69.19163385 59.30826367 -72.19912551 61.48021409 -75.20703125 63.65161133 C-76.70093264 64.73030556 -78.19442437 65.80956737 -79.6875 66.8894043 C-83.51711508 69.6584399 -87.35273944 72.41849112 -91.19921875 75.1640625 C-111.89550626 89.96179044 -122.2231669 99.37577531 -127.765625 124.98828125 C-128.0633798 126.33405112 -128.36198163 127.67963382 -128.66137695 129.02503967 C-129.60021285 133.2518737 -130.52723681 137.48125159 -131.453125 141.7109375 C-132.52829894 146.61811649 -133.60857299 151.52409679 -134.69882202 156.42794991 C-135.12722296 158.36517729 -135.54774872 160.30414097 -135.96801758 162.2431488 C-141.80186012 188.56154394 -154.06084666 202.33462544 -175.453125 217.7734375 C-176.91941437 218.83834405 -178.38555906 219.90344985 -179.8515625 220.96875 C-184.37632297 224.24965992 -188.91426612 227.51207523 -193.453125 230.7734375 C-196.4336003 232.91745892 -199.41260441 235.063508 -202.390625 237.2109375 C-203.50026611 238.01023682 -203.50026611 238.01023682 -204.63232422 238.82568359 C-209.30479925 242.19873087 -213.94108057 245.61682427 -218.56274414 249.05908203 C-254.01397603 275.41124889 -254.01397603 275.41124889 -263.828125 274.8984375 C-273.00848347 273.10476178 -281.28702037 269.17046592 -289.140625 264.2109375 C-289.74092529 263.83517578 -290.34122559 263.45941406 -290.9597168 263.07226562 C-294.09362407 261.0074036 -296.18896636 259.37017272 -297.453125 255.7734375 C-290.55425774 249.19249039 -283.24307056 243.60897904 -275.43945312 238.16845703 C-271.83404639 235.63634124 -268.27107755 233.04542335 -264.703125 230.4609375 C-263.16545783 229.3488294 -261.62769664 228.23685127 -260.08984375 227.125 C-258.93814697 226.29210449 -258.93814697 226.29210449 -257.76318359 225.44238281 C-255.50131671 223.80825451 -253.23736192 222.1770662 -250.97265625 220.546875 C-241.69340239 213.86434756 -232.46012487 207.1229022 -223.265625 200.32421875 C-220.00383192 197.91318338 -216.73234898 195.5161762 -213.453125 193.12890625 C-209.47125402 190.22734846 -205.50733187 187.30328984 -201.5625 184.3515625 C-200.21962605 183.34689384 -198.87359788 182.34641751 -197.5234375 181.3515625 C-195.83514229 180.09824291 -194.17265486 178.81767329 -192.515625 177.5234375 C-191.61972656 176.83765625 -190.72382813 176.151875 -189.80078125 175.4453125 C-183.62292966 168.41428007 -182.19278933 158.348343 -180.203125 149.4609375 C-179.90937988 148.1821875 -179.61563477 146.9034375 -179.31298828 145.5859375 C-177.60039409 138.09762874 -175.98150631 130.59086778 -174.3984375 123.07421875 C-174.22562256 122.25829758 -174.05280762 121.4423764 -173.87475586 120.60173035 C-173.03079378 116.61680594 -172.19621792 112.63048185 -171.38183594 108.6394043 C-165.19226229 78.84400496 -149.84779228 65.61670931 -125.81152344 48.45849609 C-122.03801479 45.76235151 -118.27608409 43.05024142 -114.515625 40.3359375 C-113.77626709 39.80258789 -113.03690918 39.26923828 -112.27514648 38.71972656 C-106.80991982 34.77061376 -101.37687384 30.77926343 -95.953125 26.7734375 C-93.56674753 25.01380016 -91.17986387 23.25485433 -88.79248047 21.49658203 C-87.25703074 20.36558598 -85.72217977 19.23377649 -84.18798828 18.10107422 C-30.01555869 -21.81982104 -30.01555869 -21.81982104 0 0 Z " fill="#70C971" transform="translate(399.453125,125.2265625)"/>
<path d="M0 0 C-0.56590693 3.30348173 -1.39789313 4.72238175 -4 6.8125 C-4.63123779 7.32441895 -5.26247559 7.83633789 -5.9128418 8.36376953 C-6.601604 8.90372559 -7.29036621 9.44368164 -8 10 C-8.71260986 10.56960449 -9.42521973 11.13920898 -10.15942383 11.72607422 C-15.8923411 16.25604949 -21.83071375 20.45218396 -27.83398438 24.61254883 C-34.60018564 29.33811252 -40.8618205 34.48987433 -47 40 C-48.24716797 41.08667969 -48.24716797 41.08667969 -49.51953125 42.1953125 C-57.94632307 49.97609813 -63.00186023 59.78774882 -66.95703125 70.43359375 C-67.21331299 71.12171143 -67.46959473 71.8098291 -67.73364258 72.51879883 C-70.22329875 79.36224899 -72.15614249 86.31658519 -73.9559021 93.36834717 C-74.51726894 95.56765582 -75.09028031 97.76369249 -75.6652832 99.95947266 C-77.69143404 107.72947067 -79.61246947 115.51848904 -81.45922852 123.33325195 C-85.42290917 139.88822925 -90.31056875 149.74139356 -104 160 C-104.68223633 160.52287598 -105.36447266 161.04575195 -106.06738281 161.58447266 C-153.73141875 198.09240792 -153.73141875 198.09240792 -166 197 C-176.33419137 191.61760866 -181.39684003 181.23950698 -185.1953125 170.67578125 C-193.42180047 143.9549296 -190.88817527 116.49780426 -178.1472168 91.72753906 C-172.16402057 80.49604673 -164.81853429 71.09241953 -156 62 C-155.48775879 61.46197754 -154.97551758 60.92395508 -154.44775391 60.36962891 C-142.3516718 47.6771298 -129.12646569 37.82543244 -114 29 C-113.2481543 28.5551123 -112.49630859 28.11022461 -111.72167969 27.65185547 C-78.37563009 8.18500984 -38.41337292 -0.73245838 0 0 Z " fill="#70C971" transform="translate(266,126)"/>
<path d="M0 0 C0.66 0.33 1.32 0.66 2 1 C0.95199219 1.97839844 0.95199219 1.97839844 -0.1171875 2.9765625 C-1.02726562 3.85054687 -1.93734375 4.72453125 -2.875 5.625 C-4.23238281 6.91277344 -4.23238281 6.91277344 -5.6171875 8.2265625 C-8.10498082 11.12219079 -9.06456695 13.33353252 -10 17 C-11.16297471 14.25115069 -11.01882971 13.05648912 -10.0625 10.1875 C-7.33788611 5.97673307 -3.88643052 3.12022212 0 0 Z " fill="#7DA979" transform="translate(321,241)"/>
</svg>
